<svg data-v-0dd9719b="" version="1.0" xmlns="http://www.w3.org/2000/svg" xmlns:xlink="http://www.w3.org/1999/xlink" width="100%" height="100%" viewBox="0 0 340.000000 250.000000" preserveAspectRatio="xMidYMid meet" color-interpolation-filters="sRGB" style="margin: auto;"> <rect data-v-0dd9719b="" x="0" y="0" width="100%" height="100%" fill="#fff" fill-opacity="1" class="background"></rect> <rect data-v-0dd9719b="" x="0" y="0" width="100%" height="100%" fill="url(#watermark)" fill-opacity="1" class="watermarklayer"></rect> <g data-v-0dd9719b="" fill="#333" class="icon-text-wrapper icon-svg-group iconsvg" transform="translate(47.834999084472656,95)"><g class="iconsvg-imagesvg" transform="translate(0,0)"><g><rect fill="#333" fill-opacity="0" stroke-width="2" x="0" y="0" width="60" height="60" class="image-rect"></rect> <svg x="0" y="0" width="60" height="60" filtersec="colorsb1334755239" class="image-svg-svg primary" style="overflow: visible;"><svg xmlns="http://www.w3.org/2000/svg" viewBox="0 0 91.08000183105469 91.08000183105469"><g fill-rule="evenodd"><path d="M17.66 0A57.44 57.44 0 0 1 40 45.54a57.42 57.42 0 0 1-22.34 45.54L9.8 83.22A46.44 46.44 0 0 0 29 45.54 46.45 46.45 0 0 0 9.8 7.86z" fill="#6db5a1"></path><path d="M0 73.42a57.52 57.52 0 0 1 91.08 0l-7.86 7.86a46.53 46.53 0 0 0-75.36 0z" fill="#1a77bd"></path><path d="M73.42 91.08a57.52 57.52 0 0 1 0-91.08l7.86 7.86a46.53 46.53 0 0 0 0 75.36z" fill="#f15546"></path><path d="M91.08 17.66A57.42 57.42 0 0 1 45.54 40 57.44 57.44 0 0 1 0 17.66L7.86 9.8A46.45 46.45 0 0 0 45.54 29 46.44 46.44 0 0 0 83.22 9.8zM9.82 83.24a57.5 57.5 0 0 1 71.44 0l-7.84 7.84a46.56 46.56 0 0 0-55.76 0z" fill="#c3913a"></path><path d="M83.24 81.26a57.5 57.5 0 0 1 0-71.44l7.84 7.84a46.56 46.56 0 0 0 0 55.76z" fill="#6db5a1"></path><path d="M9.82 7.84a57.23 57.23 0 0 0 35.72 12.44A57.23 57.23 0 0 0 81.26 7.84L73.42 0a46.35 46.35 0 0 1-27.88 9.28A46.35 46.35 0 0 1 17.66 0z" fill="#1a77bd"></path><path d="M7.84 81.26a57.23 57.23 0 0 0 12.44-35.72A57.23 57.23 0 0 0 7.84 9.82L0 17.66a46.35 46.35 0 0 1 9.28 27.88A46.35 46.35 0 0 1 0 73.42z" fill="#f15546"></path></g></svg></svg> <!----></g></g> <g transform="translate(67,14.40999984741211)"><g data-gra="path-name" fill-rule="" class="tp-name iconsvg-namesvg"><g transform="scale(1)"><g><path d="M14.53-30L14.53-30Q22.88-30 26.95-26.21 31.02-22.42 31.02-15.34L31.02-15.34Q31.02-10.72 29.03-7.27 27.03-3.81 23.24-1.91 19.45 0 14.15 0L14.15 0Q13.14 0 11.25-0.06 9.36-0.13 7.97-0.13L7.97-0.13Q6.1-0.13 4.3-0.11 2.5-0.08 1.44 0L1.44 0 1.44-0.85Q2.8-0.93 3.47-1.19 4.15-1.44 4.39-2.2 4.62-2.97 4.62-4.49L4.62-4.49 4.62-25.51Q4.62-27.08 4.39-27.82 4.15-28.56 3.45-28.83 2.75-29.11 1.44-29.15L1.44-29.15 1.44-30Q2.5-29.96 4.3-29.89 6.1-29.83 7.88-29.87L7.88-29.87Q9.41-29.92 11.33-29.96 13.26-30 14.53-30ZM14.49-29.24L14.49-29.24Q12.54-29.24 11.95-28.52 11.36-27.8 11.36-25.59L11.36-25.59 11.36-4.41Q11.36-2.2 11.97-1.48 12.58-0.76 14.53-0.76L14.53-0.76Q18.09-0.76 20.15-2.44 22.2-4.11 23.09-7.33 23.98-10.55 23.98-15.17L23.98-15.17Q23.98-22.29 21.78-25.76 19.58-29.24 14.49-29.24ZM61.06-30L61.06-30 61.06-29.15Q59.7-28.98 59-28.45 58.31-27.92 58.09-26.78 57.88-25.64 57.88-23.56L57.88-23.56 57.88-12.33Q57.88-9.58 57.5-7.29 57.12-5 56.14-3.35L56.14-3.35Q55.04-1.53 52.92-0.47 50.81 0.59 47.54 0.59L47.54 0.59Q45.59 0.59 43.56 0.15 41.53-0.3 39.92-1.53L39.92-1.53Q38.56-2.67 37.84-4.11 37.12-5.55 36.86-7.52 36.61-9.49 36.61-12.2L36.61-12.2 36.61-25.51Q36.61-27.08 36.38-27.82 36.14-28.56 35.47-28.83 34.79-29.11 33.43-29.15L33.43-29.15 33.43-30Q34.49-29.96 36.29-29.92 38.09-29.87 40.04-29.87L40.04-29.87Q41.99-29.87 43.79-29.92 45.59-29.96 46.78-30L46.78-30 46.78-29.15Q45.34-29.11 44.6-28.83 43.86-28.56 43.6-27.82 43.35-27.08 43.35-25.51L43.35-25.51 43.35-9.53Q43.35-6.69 43.86-4.77 44.36-2.84 45.66-1.86 46.95-0.89 49.19-0.89L49.19-0.89Q52.16-0.89 53.83-2.29 55.51-3.69 56.21-6.17 56.91-8.64 56.91-11.86L56.91-11.86 56.91-23.05Q56.91-25.38 56.61-26.63 56.31-27.88 55.44-28.43 54.58-28.98 52.8-29.15L52.8-29.15 52.8-30Q53.6-29.96 54.92-29.92 56.23-29.87 57.37-29.87L57.37-29.87Q58.39-29.87 59.39-29.92 60.38-29.96 61.06-30ZM91.19-30L91.19-30 91.19-29.15Q89.83-28.98 89.15-28.45 88.47-27.92 88.24-26.78 88.01-25.64 88.01-23.56L88.01-23.56 88.01 0.08Q87.5 0.04 86.97 0.04 86.44 0.04 85.85 0.08L85.85 0.08 67.46-23.22 67.46-6.95Q67.46-4.62 67.71-3.37 67.97-2.12 68.83-1.59 69.7-1.06 71.57-0.85L71.57-0.85 71.57 0Q70.76-0.08 69.45-0.11 68.14-0.13 66.99-0.13L66.99-0.13Q66.02-0.13 65-0.11 63.98-0.08 63.31 0L63.31 0 63.31-0.85Q64.66-1.06 65.34-1.57 66.02-2.08 66.25-3.24 66.48-4.41 66.48-6.44L66.48-6.44 66.48-25.51Q66.48-27.08 66.25-27.82 66.02-28.56 65.32-28.83 64.62-29.11 63.31-29.15L63.31-29.15 63.31-30Q63.98-29.96 65-29.92 66.02-29.87 66.99-29.87L66.99-29.87Q68.01-29.87 68.94-29.92 69.87-29.96 70.64-30L70.64-30 87.03-9.79 87.03-23.05Q87.03-25.38 86.78-26.63 86.53-27.88 85.66-28.43 84.79-28.98 82.92-29.15L82.92-29.15 82.92-30Q83.73-29.96 85.04-29.92 86.36-29.87 87.5-29.87L87.5-29.87Q88.52-29.87 89.51-29.92 90.51-29.96 91.19-30ZM108.94-30.59L108.94-30.59Q111.74-30.59 113.54-29.77 115.34-28.94 116.74-27.84L116.74-27.84Q117.58-27.2 118.03-27.69 118.47-28.18 118.64-30L118.64-30 119.62-30Q119.53-28.35 119.49-26 119.45-23.64 119.45-19.75L119.45-19.75 118.47-19.75Q118.26-21.69 117.92-23.07 117.58-24.45 116.99-25.51 116.4-26.57 115.3-27.42L115.3-27.42Q114.24-28.47 112.84-28.98 111.44-29.49 109.92-29.49L109.92-29.49Q107.63-29.49 106.02-28.28 104.41-27.08 103.41-25 102.42-22.92 101.95-20.32 101.48-17.71 101.48-14.92L101.48-14.92Q101.48-12.08 101.97-9.47 102.46-6.86 103.5-4.83 104.53-2.8 106.19-1.61 107.84-0.42 110.08-0.42L110.08-0.42Q111.48-0.42 112.9-0.95 114.32-1.48 115.34-2.5L115.34-2.5Q116.99-3.77 117.58-5.66 118.18-7.54 118.47-10.68L118.47-10.68 119.45-10.68Q119.45-6.65 119.49-4.17 119.53-1.69 119.62 0L119.62 0 118.64 0Q118.47-1.82 118.07-2.29 117.67-2.75 116.74-2.16L116.74-2.16Q115.17-1.06 113.41-0.23 111.65 0.59 108.9 0.59L108.9 0.59Q104.41 0.59 101.04-1.23 97.67-3.05 95.81-6.48 93.94-9.92 93.94-14.75L93.94-14.75Q93.94-19.49 95.87-23.05 97.8-26.61 101.17-28.6 104.53-30.59 108.94-30.59ZM137.58-30.08L137.58-30.08 147.88-3.56Q148.47-2.03 149.22-1.46 149.96-0.89 150.55-0.85L150.55-0.85 150.55 0Q149.28-0.08 147.56-0.11 145.85-0.13 144.11-0.13L144.11-0.13Q142.16-0.13 140.42-0.11 138.69-0.08 137.67 0L137.67 0 137.67-0.85Q139.83-0.93 140.4-1.59 140.97-2.25 140.13-4.41L140.13-4.41 132.92-24.11 133.69-25.21 127.25-8.43Q126.06-5.3 126.08-3.69 126.1-2.08 127.12-1.5 128.14-0.93 129.83-0.85L129.83-0.85 129.83 0Q128.43-0.08 127.16-0.11 125.89-0.13 124.58-0.13L124.58-0.13Q123.64-0.13 122.82-0.11 121.99-0.08 121.36 0L121.36 0 121.36-0.85Q122.25-1.02 123.18-1.99 124.11-2.97 125-5.3L125-5.3 134.66-30.08Q135.34-30.04 136.12-30.04 136.91-30.04 137.58-30.08ZM128.35-12.2L140.55-12.2 140.55-11.36 127.92-11.36 128.35-12.2ZM178.77-30L178.77-30 178.77-29.15Q177.42-28.98 176.74-28.45 176.06-27.92 175.83-26.78 175.59-25.64 175.59-23.56L175.59-23.56 175.59 0.08Q175.08 0.04 174.56 0.04 174.03 0.04 173.43 0.08L173.43 0.08 155.04-23.22 155.04-6.95Q155.04-4.62 155.3-3.37 155.55-2.12 156.42-1.59 157.29-1.06 159.15-0.85L159.15-0.85 159.15 0Q158.35-0.08 157.03-0.11 155.72-0.13 154.58-0.13L154.58-0.13Q153.6-0.13 152.58-0.11 151.57-0.08 150.89 0L150.89 0 150.89-0.85Q152.25-1.06 152.92-1.57 153.6-2.08 153.83-3.24 154.07-4.41 154.07-6.44L154.07-6.44 154.07-25.51Q154.07-27.08 153.83-27.82 153.6-28.56 152.9-28.83 152.2-29.11 150.89-29.15L150.89-29.15 150.89-30Q151.57-29.96 152.58-29.92 153.6-29.87 154.58-29.87L154.58-29.87Q155.59-29.87 156.53-29.92 157.46-29.96 158.22-30L158.22-30 174.62-9.79 174.62-23.05Q174.62-25.38 174.36-26.63 174.11-27.88 173.24-28.43 172.37-28.98 170.51-29.15L170.51-29.15 170.51-30Q171.31-29.96 172.63-29.92 173.94-29.87 175.08-29.87L175.08-29.87Q176.1-29.87 177.1-29.92 178.09-29.96 178.77-30Z" transform="translate(-1.440000057220459, 30.59000015258789)"></path></g> <!----> <!----> <!----> <!----> <!----> <!----> <!----></g></g> <!----></g></g><defs v-gra="od"></defs></svg>